<mxfile host="Electron" modified="2024-05-16T09:47:48.588Z" agent="Mozilla/5.0 (Windows NT 10.0; Win64; x64) AppleWebKit/537.36 (KHTML, like Gecko) draw.io/21.6.1 Chrome/112.0.5615.204 Electron/24.6.1 Safari/537.36" etag="4PpoVtZs0I0o1i7m0AKG" version="21.6.1" type="device">
  <diagram name="PÃ¡gina-1" id="i5KR3KHAbA7NBTZ6Xm-g">
    <mxGraphModel dx="1393" dy="820" grid="1" gridSize="10" guides="1" tooltips="1" connect="1" arrows="1" fold="1" page="1" pageScale="1" pageWidth="1169" pageHeight="827" math="0" shadow="0">
      <root>
        <mxCell id="0" />
        <mxCell id="1" parent="0" />
        <mxCell id="3oF6dMSj1uV6MJMy0CR5-2" value="" style="shape=umlLifeline;perimeter=lifelinePerimeter;whiteSpace=wrap;html=1;container=1;dropTarget=0;collapsible=0;recursiveResize=0;outlineConnect=0;portConstraint=eastwest;newEdgeStyle={&quot;edgeStyle&quot;:&quot;elbowEdgeStyle&quot;,&quot;elbow&quot;:&quot;vertical&quot;,&quot;curved&quot;:0,&quot;rounded&quot;:0};participant=umlActor;" vertex="1" parent="1">
          <mxGeometry x="475" width="20" height="850" as="geometry" />
        </mxCell>
        <mxCell id="3oF6dMSj1uV6MJMy0CR5-3" value=":videoclub" style="shape=umlLifeline;perimeter=lifelinePerimeter;whiteSpace=wrap;html=1;container=1;dropTarget=0;collapsible=0;recursiveResize=0;outlineConnect=0;portConstraint=eastwest;newEdgeStyle={&quot;edgeStyle&quot;:&quot;elbowEdgeStyle&quot;,&quot;elbow&quot;:&quot;vertical&quot;,&quot;curved&quot;:0,&quot;rounded&quot;:0};" vertex="1" parent="1">
          <mxGeometry x="625" width="100" height="850" as="geometry" />
        </mxCell>
        <mxCell id="3oF6dMSj1uV6MJMy0CR5-4" value="" style="html=1;points=[];perimeter=orthogonalPerimeter;outlineConnect=0;targetShapes=umlLifeline;portConstraint=eastwest;newEdgeStyle={&quot;edgeStyle&quot;:&quot;elbowEdgeStyle&quot;,&quot;elbow&quot;:&quot;vertical&quot;,&quot;curved&quot;:0,&quot;rounded&quot;:0};" vertex="1" parent="3oF6dMSj1uV6MJMy0CR5-3">
          <mxGeometry x="45" y="190" width="10" height="80" as="geometry" />
        </mxCell>
        <mxCell id="3oF6dMSj1uV6MJMy0CR5-5" value="peliculaAAlquilar(pelicula: Pelicula)" style="html=1;verticalAlign=bottom;endArrow=block;edgeStyle=elbowEdgeStyle;elbow=vertical;curved=0;rounded=0;" edge="1" parent="3oF6dMSj1uV6MJMy0CR5-3" target="3oF6dMSj1uV6MJMy0CR5-4">
          <mxGeometry relative="1" as="geometry">
            <mxPoint x="-135" y="190" as="sourcePoint" />
          </mxGeometry>
        </mxCell>
        <mxCell id="3oF6dMSj1uV6MJMy0CR5-6" value="peliculaDisponible" style="html=1;verticalAlign=bottom;endArrow=open;dashed=1;endSize=8;edgeStyle=elbowEdgeStyle;elbow=vertical;curved=0;rounded=0;" edge="1" parent="3oF6dMSj1uV6MJMy0CR5-3" source="3oF6dMSj1uV6MJMy0CR5-4">
          <mxGeometry relative="1" as="geometry">
            <mxPoint x="-135" y="265" as="targetPoint" />
          </mxGeometry>
        </mxCell>
        <mxCell id="3oF6dMSj1uV6MJMy0CR5-7" value="" style="html=1;points=[];perimeter=orthogonalPerimeter;outlineConnect=0;targetShapes=umlLifeline;portConstraint=eastwest;newEdgeStyle={&quot;edgeStyle&quot;:&quot;elbowEdgeStyle&quot;,&quot;elbow&quot;:&quot;vertical&quot;,&quot;curved&quot;:0,&quot;rounded&quot;:0};" vertex="1" parent="3oF6dMSj1uV6MJMy0CR5-3">
          <mxGeometry x="-145" y="190" width="10" height="80" as="geometry" />
        </mxCell>
        <mxCell id="3oF6dMSj1uV6MJMy0CR5-20" value="" style="html=1;points=[];perimeter=orthogonalPerimeter;outlineConnect=0;targetShapes=umlLifeline;portConstraint=eastwest;newEdgeStyle={&quot;edgeStyle&quot;:&quot;elbowEdgeStyle&quot;,&quot;elbow&quot;:&quot;vertical&quot;,&quot;curved&quot;:0,&quot;rounded&quot;:0};" vertex="1" parent="3oF6dMSj1uV6MJMy0CR5-3">
          <mxGeometry x="45" y="710" width="10" height="80" as="geometry" />
        </mxCell>
        <mxCell id="3oF6dMSj1uV6MJMy0CR5-21" value="solicitarPelicula(pelicula: Pelicula)" style="html=1;verticalAlign=bottom;endArrow=block;edgeStyle=elbowEdgeStyle;elbow=vertical;curved=0;rounded=0;" edge="1" target="3oF6dMSj1uV6MJMy0CR5-20" parent="3oF6dMSj1uV6MJMy0CR5-3">
          <mxGeometry relative="1" as="geometry">
            <mxPoint x="-135" y="710" as="sourcePoint" />
          </mxGeometry>
        </mxCell>
        <mxCell id="3oF6dMSj1uV6MJMy0CR5-22" value="mensajeError" style="html=1;verticalAlign=bottom;endArrow=open;dashed=1;endSize=8;edgeStyle=elbowEdgeStyle;elbow=vertical;curved=0;rounded=0;" edge="1" source="3oF6dMSj1uV6MJMy0CR5-20" parent="3oF6dMSj1uV6MJMy0CR5-3">
          <mxGeometry relative="1" as="geometry">
            <mxPoint x="-135" y="785" as="targetPoint" />
          </mxGeometry>
        </mxCell>
        <mxCell id="3oF6dMSj1uV6MJMy0CR5-23" value="" style="html=1;points=[];perimeter=orthogonalPerimeter;outlineConnect=0;targetShapes=umlLifeline;portConstraint=eastwest;newEdgeStyle={&quot;edgeStyle&quot;:&quot;elbowEdgeStyle&quot;,&quot;elbow&quot;:&quot;vertical&quot;,&quot;curved&quot;:0,&quot;rounded&quot;:0};" vertex="1" parent="3oF6dMSj1uV6MJMy0CR5-3">
          <mxGeometry x="-145" y="710" width="10" height="80" as="geometry" />
        </mxCell>
        <mxCell id="3oF6dMSj1uV6MJMy0CR5-24" value="[!peliculaDisponible]" style="text;html=1;align=center;verticalAlign=middle;resizable=0;points=[];autosize=1;strokeColor=none;fillColor=none;" vertex="1" parent="3oF6dMSj1uV6MJMy0CR5-3">
          <mxGeometry x="-195" y="670" width="130" height="30" as="geometry" />
        </mxCell>
        <mxCell id="3oF6dMSj1uV6MJMy0CR5-28" value="" style="html=1;points=[];perimeter=orthogonalPerimeter;outlineConnect=0;targetShapes=umlLifeline;portConstraint=eastwest;newEdgeStyle={&quot;edgeStyle&quot;:&quot;elbowEdgeStyle&quot;,&quot;elbow&quot;:&quot;vertical&quot;,&quot;curved&quot;:0,&quot;rounded&quot;:0};" vertex="1" parent="3oF6dMSj1uV6MJMy0CR5-3">
          <mxGeometry x="45" y="520" width="10" height="40" as="geometry" />
        </mxCell>
        <mxCell id="3oF6dMSj1uV6MJMy0CR5-29" value="rellenarFormulario(usuario: Usuario)" style="html=1;verticalAlign=bottom;endArrow=block;edgeStyle=elbowEdgeStyle;elbow=vertical;curved=0;rounded=0;" edge="1" target="3oF6dMSj1uV6MJMy0CR5-28" parent="3oF6dMSj1uV6MJMy0CR5-3">
          <mxGeometry relative="1" as="geometry">
            <mxPoint x="-135" y="520" as="sourcePoint" />
          </mxGeometry>
        </mxCell>
        <mxCell id="3oF6dMSj1uV6MJMy0CR5-30" value="usuarioCreado" style="html=1;verticalAlign=bottom;endArrow=open;dashed=1;endSize=8;edgeStyle=elbowEdgeStyle;elbow=vertical;curved=0;rounded=0;" edge="1" source="3oF6dMSj1uV6MJMy0CR5-28" parent="3oF6dMSj1uV6MJMy0CR5-3" target="3oF6dMSj1uV6MJMy0CR5-31">
          <mxGeometry relative="1" as="geometry">
            <mxPoint x="-130" y="550" as="targetPoint" />
            <Array as="points">
              <mxPoint x="-40" y="550" />
            </Array>
          </mxGeometry>
        </mxCell>
        <mxCell id="3oF6dMSj1uV6MJMy0CR5-31" value="" style="html=1;points=[];perimeter=orthogonalPerimeter;outlineConnect=0;targetShapes=umlLifeline;portConstraint=eastwest;newEdgeStyle={&quot;edgeStyle&quot;:&quot;elbowEdgeStyle&quot;,&quot;elbow&quot;:&quot;vertical&quot;,&quot;curved&quot;:0,&quot;rounded&quot;:0};" vertex="1" parent="3oF6dMSj1uV6MJMy0CR5-3">
          <mxGeometry x="-145" y="520" width="10" height="40" as="geometry" />
        </mxCell>
        <mxCell id="3oF6dMSj1uV6MJMy0CR5-32" value="" style="html=1;points=[];perimeter=orthogonalPerimeter;outlineConnect=0;targetShapes=umlLifeline;portConstraint=eastwest;newEdgeStyle={&quot;edgeStyle&quot;:&quot;elbowEdgeStyle&quot;,&quot;elbow&quot;:&quot;vertical&quot;,&quot;curved&quot;:0,&quot;rounded&quot;:0};" vertex="1" parent="3oF6dMSj1uV6MJMy0CR5-3">
          <mxGeometry x="45" y="590" width="10" height="40" as="geometry" />
        </mxCell>
        <mxCell id="3oF6dMSj1uV6MJMy0CR5-33" value="solicitarConfAlquiler()" style="html=1;verticalAlign=bottom;endArrow=block;edgeStyle=elbowEdgeStyle;elbow=vertical;curved=0;rounded=0;" edge="1" target="3oF6dMSj1uV6MJMy0CR5-32" parent="3oF6dMSj1uV6MJMy0CR5-3">
          <mxGeometry relative="1" as="geometry">
            <mxPoint x="-135" y="590" as="sourcePoint" />
          </mxGeometry>
        </mxCell>
        <mxCell id="3oF6dMSj1uV6MJMy0CR5-34" value="alquilerRealizado" style="html=1;verticalAlign=bottom;endArrow=open;dashed=1;endSize=8;edgeStyle=elbowEdgeStyle;elbow=vertical;curved=0;rounded=0;" edge="1" source="3oF6dMSj1uV6MJMy0CR5-32" target="3oF6dMSj1uV6MJMy0CR5-35" parent="3oF6dMSj1uV6MJMy0CR5-3">
          <mxGeometry relative="1" as="geometry">
            <mxPoint x="-130" y="620" as="targetPoint" />
            <Array as="points">
              <mxPoint x="-40" y="620" />
            </Array>
          </mxGeometry>
        </mxCell>
        <mxCell id="3oF6dMSj1uV6MJMy0CR5-35" value="" style="html=1;points=[];perimeter=orthogonalPerimeter;outlineConnect=0;targetShapes=umlLifeline;portConstraint=eastwest;newEdgeStyle={&quot;edgeStyle&quot;:&quot;elbowEdgeStyle&quot;,&quot;elbow&quot;:&quot;vertical&quot;,&quot;curved&quot;:0,&quot;rounded&quot;:0};" vertex="1" parent="3oF6dMSj1uV6MJMy0CR5-3">
          <mxGeometry x="-145" y="590" width="10" height="40" as="geometry" />
        </mxCell>
        <mxCell id="3oF6dMSj1uV6MJMy0CR5-8" value="" style="html=1;points=[];perimeter=orthogonalPerimeter;outlineConnect=0;targetShapes=umlLifeline;portConstraint=eastwest;newEdgeStyle={&quot;edgeStyle&quot;:&quot;elbowEdgeStyle&quot;,&quot;elbow&quot;:&quot;vertical&quot;,&quot;curved&quot;:0,&quot;rounded&quot;:0};" vertex="1" parent="1">
          <mxGeometry x="670" y="80" width="10" height="80" as="geometry" />
        </mxCell>
        <mxCell id="3oF6dMSj1uV6MJMy0CR5-9" value="solicitudAlquilerPelicula()" style="html=1;verticalAlign=bottom;endArrow=block;edgeStyle=elbowEdgeStyle;elbow=vertical;curved=0;rounded=0;" edge="1" parent="1" target="3oF6dMSj1uV6MJMy0CR5-8">
          <mxGeometry relative="1" as="geometry">
            <mxPoint x="490" y="80" as="sourcePoint" />
          </mxGeometry>
        </mxCell>
        <mxCell id="3oF6dMSj1uV6MJMy0CR5-10" value="listadoPeliculas" style="html=1;verticalAlign=bottom;endArrow=open;dashed=1;endSize=8;edgeStyle=elbowEdgeStyle;elbow=vertical;curved=0;rounded=0;" edge="1" parent="1" source="3oF6dMSj1uV6MJMy0CR5-8">
          <mxGeometry relative="1" as="geometry">
            <mxPoint x="490" y="155" as="targetPoint" />
          </mxGeometry>
        </mxCell>
        <mxCell id="3oF6dMSj1uV6MJMy0CR5-11" value="" style="html=1;points=[];perimeter=orthogonalPerimeter;outlineConnect=0;targetShapes=umlLifeline;portConstraint=eastwest;newEdgeStyle={&quot;edgeStyle&quot;:&quot;elbowEdgeStyle&quot;,&quot;elbow&quot;:&quot;vertical&quot;,&quot;curved&quot;:0,&quot;rounded&quot;:0};" vertex="1" parent="1">
          <mxGeometry x="480" y="80" width="10" height="80" as="geometry" />
        </mxCell>
        <mxCell id="3oF6dMSj1uV6MJMy0CR5-12" value="Usuario" style="text;html=1;align=center;verticalAlign=middle;resizable=0;points=[];autosize=1;strokeColor=none;fillColor=none;" vertex="1" parent="1">
          <mxGeometry x="455" y="30" width="60" height="30" as="geometry" />
        </mxCell>
        <mxCell id="3oF6dMSj1uV6MJMy0CR5-13" value="Alt" style="shape=umlFrame;whiteSpace=wrap;html=1;pointerEvents=0;" vertex="1" parent="1">
          <mxGeometry x="435" y="283" width="300" height="517" as="geometry" />
        </mxCell>
        <mxCell id="3oF6dMSj1uV6MJMy0CR5-14" value="[peliculaDisponible]" style="text;html=1;align=center;verticalAlign=middle;resizable=0;points=[];autosize=1;strokeColor=none;fillColor=none;" vertex="1" parent="1">
          <mxGeometry x="430" y="310" width="130" height="30" as="geometry" />
        </mxCell>
        <mxCell id="3oF6dMSj1uV6MJMy0CR5-19" value="" style="endArrow=none;dashed=1;html=1;rounded=0;" edge="1" parent="1">
          <mxGeometry width="50" height="50" relative="1" as="geometry">
            <mxPoint x="425" y="660" as="sourcePoint" />
            <mxPoint x="745" y="660" as="targetPoint" />
          </mxGeometry>
        </mxCell>
        <mxCell id="3oF6dMSj1uV6MJMy0CR5-15" value="" style="html=1;points=[];perimeter=orthogonalPerimeter;outlineConnect=0;targetShapes=umlLifeline;portConstraint=eastwest;newEdgeStyle={&quot;edgeStyle&quot;:&quot;elbowEdgeStyle&quot;,&quot;elbow&quot;:&quot;vertical&quot;,&quot;curved&quot;:0,&quot;rounded&quot;:0};" vertex="1" parent="1">
          <mxGeometry x="670" y="350" width="10" height="80" as="geometry" />
        </mxCell>
        <mxCell id="3oF6dMSj1uV6MJMy0CR5-16" value="solicitarPelicula(pelicula: Pelicula)" style="html=1;verticalAlign=bottom;endArrow=block;edgeStyle=elbowEdgeStyle;elbow=vertical;curved=0;rounded=0;" edge="1" target="3oF6dMSj1uV6MJMy0CR5-15" parent="1">
          <mxGeometry relative="1" as="geometry">
            <mxPoint x="490" y="350" as="sourcePoint" />
          </mxGeometry>
        </mxCell>
        <mxCell id="3oF6dMSj1uV6MJMy0CR5-17" value="datosPelicula" style="html=1;verticalAlign=bottom;endArrow=open;dashed=1;endSize=8;edgeStyle=elbowEdgeStyle;elbow=vertical;curved=0;rounded=0;" edge="1" source="3oF6dMSj1uV6MJMy0CR5-15" parent="1">
          <mxGeometry relative="1" as="geometry">
            <mxPoint x="490" y="425" as="targetPoint" />
          </mxGeometry>
        </mxCell>
        <mxCell id="3oF6dMSj1uV6MJMy0CR5-18" value="" style="html=1;points=[];perimeter=orthogonalPerimeter;outlineConnect=0;targetShapes=umlLifeline;portConstraint=eastwest;newEdgeStyle={&quot;edgeStyle&quot;:&quot;elbowEdgeStyle&quot;,&quot;elbow&quot;:&quot;vertical&quot;,&quot;curved&quot;:0,&quot;rounded&quot;:0};" vertex="1" parent="1">
          <mxGeometry x="480" y="350" width="10" height="80" as="geometry" />
        </mxCell>
        <mxCell id="3oF6dMSj1uV6MJMy0CR5-26" value="Opt" style="shape=umlFrame;whiteSpace=wrap;html=1;pointerEvents=0;" vertex="1" parent="1">
          <mxGeometry x="445" y="440" width="280" height="130" as="geometry" />
        </mxCell>
        <mxCell id="3oF6dMSj1uV6MJMy0CR5-27" value="&amp;nbsp; &amp;nbsp; [!usuarioExiste]" style="text;html=1;align=center;verticalAlign=middle;resizable=0;points=[];autosize=1;strokeColor=none;fillColor=none;" vertex="1" parent="1">
          <mxGeometry x="425" y="465" width="120" height="30" as="geometry" />
        </mxCell>
        <mxCell id="3oF6dMSj1uV6MJMy0CR5-43" value="" style="ellipse;whiteSpace=wrap;html=1;align=center;aspect=fixed;fillColor=none;strokeColor=none;resizable=0;perimeter=centerPerimeter;rotatable=0;allowArrows=0;points=[];outlineConnect=1;" vertex="1" parent="1">
          <mxGeometry x="490" y="470" width="10" height="10" as="geometry" />
        </mxCell>
      </root>
    </mxGraphModel>
  </diagram>
</mxfile>
